<mxfile host="app.diagrams.net" modified="2022-03-13T23:02:36.547Z" agent="5.0 (Windows NT 10.0; Win64; x64) AppleWebKit/537.36 (KHTML, like Gecko) Chrome/99.0.4844.51 Safari/537.36" etag="I79GDgYnF7xZdForGtFs" version="17.1.2" type="github">
  <diagram id="ieLRnOUViog7r7huPqXc" name="Page-1">
    <mxGraphModel dx="1209" dy="598" grid="1" gridSize="10" guides="1" tooltips="1" connect="1" arrows="1" fold="1" page="1" pageScale="1" pageWidth="827" pageHeight="1169" math="0" shadow="0">
      <root>
        <mxCell id="0" />
        <mxCell id="1" parent="0" />
        <mxCell id="6iQor5uXximbZcI684rT-1" value="Enseignant" style="shape=umlActor;verticalLabelPosition=bottom;verticalAlign=top;html=1;" vertex="1" parent="1">
          <mxGeometry x="120" y="60" width="30" height="60" as="geometry" />
        </mxCell>
        <mxCell id="6iQor5uXximbZcI684rT-2" value="Interfaces&amp;nbsp;&lt;br&gt;Tout les&lt;br&gt;document de&lt;br&gt;l&#39;équipe" style="shape=umlBoundary;whiteSpace=wrap;html=1;" vertex="1" parent="1">
          <mxGeometry x="270" y="50" width="100" height="80" as="geometry" />
        </mxCell>
        <mxCell id="6iQor5uXximbZcI684rT-3" value="Control Object" style="ellipse;shape=umlControl;whiteSpace=wrap;html=1;" vertex="1" parent="1">
          <mxGeometry x="470" y="50" width="70" height="80" as="geometry" />
        </mxCell>
        <mxCell id="6iQor5uXximbZcI684rT-4" value="Entity Object" style="ellipse;shape=umlEntity;whiteSpace=wrap;html=1;" vertex="1" parent="1">
          <mxGeometry x="640" y="50" width="80" height="80" as="geometry" />
        </mxCell>
        <mxCell id="6iQor5uXximbZcI684rT-5" value="" style="endArrow=none;dashed=1;html=1;rounded=0;startArrow=none;" edge="1" parent="1" source="6iQor5uXximbZcI684rT-23">
          <mxGeometry width="50" height="50" relative="1" as="geometry">
            <mxPoint x="470" y="160" as="sourcePoint" />
            <mxPoint x="135" y="620" as="targetPoint" />
          </mxGeometry>
        </mxCell>
        <mxCell id="6iQor5uXximbZcI684rT-6" value="" style="endArrow=none;dashed=1;html=1;rounded=0;startArrow=none;" edge="1" parent="1" source="6iQor5uXximbZcI684rT-21">
          <mxGeometry width="50" height="50" relative="1" as="geometry">
            <mxPoint x="317.6435538752363" y="130" as="sourcePoint" />
            <mxPoint x="318" y="630" as="targetPoint" />
          </mxGeometry>
        </mxCell>
        <mxCell id="6iQor5uXximbZcI684rT-7" value="" style="endArrow=none;dashed=1;html=1;rounded=0;startArrow=none;" edge="1" parent="1" source="6iQor5uXximbZcI684rT-29">
          <mxGeometry width="50" height="50" relative="1" as="geometry">
            <mxPoint x="502.6435538752363" y="130" as="sourcePoint" />
            <mxPoint x="503" y="629" as="targetPoint" />
          </mxGeometry>
        </mxCell>
        <mxCell id="6iQor5uXximbZcI684rT-8" value="" style="endArrow=none;dashed=1;html=1;rounded=0;startArrow=none;" edge="1" parent="1" source="6iQor5uXximbZcI684rT-27">
          <mxGeometry width="50" height="50" relative="1" as="geometry">
            <mxPoint x="677.6435538752363" y="130" as="sourcePoint" />
            <mxPoint x="678" y="630" as="targetPoint" />
          </mxGeometry>
        </mxCell>
        <mxCell id="6iQor5uXximbZcI684rT-9" value="Connection" style="rounded=0;whiteSpace=wrap;html=1;" vertex="1" parent="1">
          <mxGeometry x="120" y="180" width="220" height="60" as="geometry" />
        </mxCell>
        <mxCell id="6iQor5uXximbZcI684rT-10" value="REF" style="rounded=0;whiteSpace=wrap;html=1;" vertex="1" parent="1">
          <mxGeometry x="120" y="180" width="40" height="20" as="geometry" />
        </mxCell>
        <mxCell id="6iQor5uXximbZcI684rT-11" value="" style="endArrow=classic;html=1;rounded=0;entryX=0.12;entryY=0.079;entryDx=0;entryDy=0;entryPerimeter=0;" edge="1" parent="1">
          <mxGeometry relative="1" as="geometry">
            <mxPoint x="140" y="290" as="sourcePoint" />
            <mxPoint x="301.20000000000005" y="290.85" as="targetPoint" />
            <Array as="points">
              <mxPoint x="200.5" y="290" />
            </Array>
          </mxGeometry>
        </mxCell>
        <mxCell id="6iQor5uXximbZcI684rT-12" value="Cliquer sur&amp;nbsp;&lt;br&gt;le bouton suivi" style="edgeLabel;html=1;align=center;verticalAlign=middle;resizable=0;points=[];" vertex="1" connectable="0" parent="6iQor5uXximbZcI684rT-11">
          <mxGeometry x="0.0281" y="-2" relative="1" as="geometry">
            <mxPoint as="offset" />
          </mxGeometry>
        </mxCell>
        <mxCell id="6iQor5uXximbZcI684rT-13" value="" style="endArrow=classic;html=1;rounded=0;" edge="1" parent="1">
          <mxGeometry relative="1" as="geometry">
            <mxPoint x="320" y="320" as="sourcePoint" />
            <mxPoint x="490" y="320" as="targetPoint" />
            <Array as="points">
              <mxPoint x="380.5" y="320" />
            </Array>
          </mxGeometry>
        </mxCell>
        <mxCell id="6iQor5uXximbZcI684rT-14" value="Demande d&#39;accès&lt;br&gt;au nombre de&amp;nbsp;&lt;br&gt;modification approté&lt;br&gt;les vu , la qualité .." style="edgeLabel;html=1;align=center;verticalAlign=middle;resizable=0;points=[];" vertex="1" connectable="0" parent="6iQor5uXximbZcI684rT-13">
          <mxGeometry x="0.0281" y="-2" relative="1" as="geometry">
            <mxPoint as="offset" />
          </mxGeometry>
        </mxCell>
        <mxCell id="6iQor5uXximbZcI684rT-15" value="" style="endArrow=classic;html=1;rounded=0;" edge="1" parent="1">
          <mxGeometry relative="1" as="geometry">
            <mxPoint x="500" y="360" as="sourcePoint" />
            <mxPoint x="670" y="360" as="targetPoint" />
            <Array as="points">
              <mxPoint x="560.5" y="360" />
            </Array>
          </mxGeometry>
        </mxCell>
        <mxCell id="6iQor5uXximbZcI684rT-16" value="Demander les&amp;nbsp;&lt;br&gt;données nombre de&amp;nbsp;&lt;br&gt;modification approté&lt;br&gt;les vu , la qualité .." style="edgeLabel;html=1;align=center;verticalAlign=middle;resizable=0;points=[];" vertex="1" connectable="0" parent="6iQor5uXximbZcI684rT-15">
          <mxGeometry x="0.0281" y="-2" relative="1" as="geometry">
            <mxPoint as="offset" />
          </mxGeometry>
        </mxCell>
        <mxCell id="6iQor5uXximbZcI684rT-17" value="Donnée rendu" style="endArrow=classic;html=1;rounded=0;entryX=1.312;entryY=0.742;entryDx=0;entryDy=0;entryPerimeter=0;" edge="1" parent="1">
          <mxGeometry relative="1" as="geometry">
            <mxPoint x="680.44" y="420.4000000000001" as="sourcePoint" />
            <mxPoint x="520" y="420" as="targetPoint" />
            <Array as="points" />
          </mxGeometry>
        </mxCell>
        <mxCell id="6iQor5uXximbZcI684rT-18" value="Afficher les données" style="endArrow=classic;html=1;rounded=0;" edge="1" parent="1">
          <mxGeometry relative="1" as="geometry">
            <mxPoint x="500.44000000000005" y="460.4000000000001" as="sourcePoint" />
            <mxPoint x="330" y="460" as="targetPoint" />
            <Array as="points" />
          </mxGeometry>
        </mxCell>
        <mxCell id="6iQor5uXximbZcI684rT-20" value="données affiché" style="endArrow=classic;html=1;rounded=0;" edge="1" parent="1">
          <mxGeometry relative="1" as="geometry">
            <mxPoint x="320.44000000000005" y="500.4000000000001" as="sourcePoint" />
            <mxPoint x="150" y="500" as="targetPoint" />
            <Array as="points" />
          </mxGeometry>
        </mxCell>
        <mxCell id="6iQor5uXximbZcI684rT-21" value="" style="html=1;points=[];perimeter=orthogonalPerimeter;" vertex="1" parent="1">
          <mxGeometry x="310" y="240" width="10" height="300" as="geometry" />
        </mxCell>
        <mxCell id="6iQor5uXximbZcI684rT-22" value="" style="endArrow=none;dashed=1;html=1;rounded=0;" edge="1" parent="1" target="6iQor5uXximbZcI684rT-21">
          <mxGeometry width="50" height="50" relative="1" as="geometry">
            <mxPoint x="317.6435538752362" y="130" as="sourcePoint" />
            <mxPoint x="318" y="630" as="targetPoint" />
          </mxGeometry>
        </mxCell>
        <mxCell id="6iQor5uXximbZcI684rT-23" value="" style="html=1;points=[];perimeter=orthogonalPerimeter;" vertex="1" parent="1">
          <mxGeometry x="130" y="240" width="10" height="300" as="geometry" />
        </mxCell>
        <mxCell id="6iQor5uXximbZcI684rT-26" value="" style="endArrow=none;dashed=1;html=1;rounded=0;" edge="1" parent="1" source="6iQor5uXximbZcI684rT-1" target="6iQor5uXximbZcI684rT-23">
          <mxGeometry width="50" height="50" relative="1" as="geometry">
            <mxPoint x="135" y="120" as="sourcePoint" />
            <mxPoint x="135" y="620" as="targetPoint" />
          </mxGeometry>
        </mxCell>
        <mxCell id="6iQor5uXximbZcI684rT-27" value="" style="html=1;points=[];perimeter=orthogonalPerimeter;" vertex="1" parent="1">
          <mxGeometry x="675" y="340" width="10" height="90" as="geometry" />
        </mxCell>
        <mxCell id="6iQor5uXximbZcI684rT-28" value="" style="endArrow=none;dashed=1;html=1;rounded=0;" edge="1" parent="1" target="6iQor5uXximbZcI684rT-27">
          <mxGeometry width="50" height="50" relative="1" as="geometry">
            <mxPoint x="677.6435538752362" y="130" as="sourcePoint" />
            <mxPoint x="678" y="630" as="targetPoint" />
          </mxGeometry>
        </mxCell>
        <mxCell id="6iQor5uXximbZcI684rT-29" value="" style="html=1;points=[];perimeter=orthogonalPerimeter;" vertex="1" parent="1">
          <mxGeometry x="500" y="300" width="10" height="180" as="geometry" />
        </mxCell>
        <mxCell id="6iQor5uXximbZcI684rT-31" value="" style="endArrow=none;dashed=1;html=1;rounded=0;" edge="1" parent="1" target="6iQor5uXximbZcI684rT-29">
          <mxGeometry width="50" height="50" relative="1" as="geometry">
            <mxPoint x="502.6435538752362" y="130" as="sourcePoint" />
            <mxPoint x="503" y="629" as="targetPoint" />
          </mxGeometry>
        </mxCell>
      </root>
    </mxGraphModel>
  </diagram>
</mxfile>
